<svg xmlns="http://www.w3.org/2000/svg" viewBox="0 0 512 512">
  <!-- Royal Blue 라운드 사각 배경 -->
  <rect width="512" height="512" rx="96" fill="#1e3a8a"/>

  <!-- S — 하이원 원추리체 글리프 외곽선(fill) -->
  <g transform="translate(126, 70) scale(2.6)">
    <path
      d="M84.30664857530529 69.54545454545455Q84.30664857530529 81.21438263229308 76.02170963364993 87.10719131614654Q67.73677069199458 93.0 50.116689280868385 93.0Q45.099050203527824 93.0 40.198100407055634 92.29986431478969Q35.297150610583444 91.59972862957937 30.862957937584802 90.02442333785618Q26.42876526458616 88.44911804613297 22.519674355495255 85.7652645861601Q18.610583446404345 83.08141112618725 15.693351424694711 79.23066485753053L25.145183175033925 73.0461329715061Q27.24559023066486 75.96336499321573 30.046132971506108 77.88873812754409Q32.846675712347356 79.81411126187245 36.055630936227956 80.98100407055631Q39.26458616010855 82.14789687924016 42.88195386702849 82.6729986431479Q46.499321573948436 83.19810040705563 50.116689280868385 83.19810040705563Q61.20217096336499 83.19810040705563 66.21981004070557 79.93080054274084Q71.23744911804613 76.66350067842605 71.23744911804613 71.17910447761193Q71.23744911804613 67.91180461329715 70.07055630936227 65.40298507462686Q68.90366350067843 62.894165535956574 66.33649932157395 60.96879240162822Q63.76933514246947 59.04341926729986 59.68521031207599 57.40976933514247Q55.6010854816825 55.776119402985074 49.649932157394844 54.14246947082768Q42.0651289009498 52.04206241519674 35.997286295793764 49.76662143826323Q29.929443690637722 47.49118046132971 25.78697421981004 44.57394843962008Q21.644504748982364 41.656716417910445 19.485753052917236 37.805970149253724Q17.327001356852108 33.95522388059701 17.443690637720493 28.70420624151967Q17.56037991858888 22.986431478968797 20.01085481682497 18.843962008141112Q22.461329715061062 14.701492537313428 26.895522388059703 12.075983717774761Q31.329715061058348 9.450474898236095 37.63093622795116 8.225237449118048Q43.93215739484397 7.0 51.75033921302578 7.0Q61.20217096336499 7.0 69.42876526458616 9.742198100407059Q77.65535956580733 12.484396200814118 83.95658073270013 18.55223880597015L75.55495251017639 25.436906377204878Q70.88738127544097 20.652645861601087 64.81953867028494 18.727272727272727Q58.7516960651289 16.801899592944366 51.75033921302578 16.801899592944366Q40.54816824966079 16.801899592944366 35.53052917232022 19.369063772048847Q30.51289009497965 21.936227951153327 30.51289009497965 27.07055630936228Q30.51289009497965 30.104477611940297 31.621438263229308 32.32157394843962Q32.72998643147897 34.53867028493894 35.23880597014926 36.34735413839891Q37.74762550881954 38.15603799185889 41.77340569877883 39.67299864314789Q45.79918588873812 41.1899592944369 51.75033921302578 42.706919945725915Q59.91858887381275 44.92401628222524 66.04477611940298 47.43283582089552Q72.17096336499321 49.94165535956581 76.1967435549525 53.09226594301221Q80.2225237449118 56.242876526458616 82.26458616010854 60.26865671641791Q84.30664857530529 64.2944369063772 84.30664857530529 69.54545454545455Z"
      fill="#fbbf24"
    />
  </g>

  <!-- BUSINESS 호 path — 안전영역 안에 위치 -->
  <defs>
    <path id="arc-business" d="M 130 360 Q 256 415 382 360" fill="none"/>
  </defs>

  <!-- S 아래쪽 둥근 호 'BUSINESS' 텍스트 -->
  <text font-family="-apple-system, BlinkMacSystemFont, 'Helvetica Neue', Helvetica, Arial, sans-serif"
        font-size="38"
        font-weight="800"
        letter-spacing="6"
        fill="#fbbf24">
    <textPath href="#arc-business" startOffset="50%" text-anchor="middle">
      BUSINESS
    </textPath>
  </text>
</svg>
